G04 #@! TF.FileFunction,Legend,Top*
%FSLAX46Y46*%
G04 Gerber Fmt 4.6, Leading zero omitted, Abs format (unit mm)*
G04 Created by KiCad (PCBNEW 4.0.4-stable) date 12/23/16 15:55:29*
%MOMM*%
%LPD*%
G01*
G04 APERTURE LIST*
%ADD10C,0.100000*%
%ADD11C,0.300000*%
%ADD12C,0.150000*%
G04 APERTURE END LIST*
D10*
D11*
X108995714Y-124924429D02*
X109067143Y-124853000D01*
X109210000Y-124781571D01*
X109567143Y-124781571D01*
X109710000Y-124853000D01*
X109781429Y-124924429D01*
X109852857Y-125067286D01*
X109852857Y-125210143D01*
X109781429Y-125424429D01*
X108924286Y-126281571D01*
X109852857Y-126281571D01*
X111138571Y-125281571D02*
X111138571Y-126281571D01*
X110781428Y-124710143D02*
X110424285Y-125781571D01*
X111352857Y-125781571D01*
X111924285Y-125710143D02*
X113067142Y-125710143D01*
X114495714Y-126281571D02*
X113781428Y-126281571D01*
X113781428Y-124781571D01*
X114995714Y-125495857D02*
X115495714Y-125495857D01*
X115710000Y-126281571D02*
X114995714Y-126281571D01*
X114995714Y-124781571D01*
X115710000Y-124781571D01*
X116352857Y-126281571D02*
X116352857Y-124781571D01*
X116710000Y-124781571D01*
X116924285Y-124853000D01*
X117067143Y-124995857D01*
X117138571Y-125138714D01*
X117210000Y-125424429D01*
X117210000Y-125638714D01*
X117138571Y-125924429D01*
X117067143Y-126067286D01*
X116924285Y-126210143D01*
X116710000Y-126281571D01*
X116352857Y-126281571D01*
X118852857Y-125281571D02*
X119138571Y-126281571D01*
X119424285Y-125567286D01*
X119710000Y-126281571D01*
X119995714Y-125281571D01*
X120567143Y-126281571D02*
X120567143Y-125281571D01*
X120567143Y-124781571D02*
X120495714Y-124853000D01*
X120567143Y-124924429D01*
X120638571Y-124853000D01*
X120567143Y-124781571D01*
X120567143Y-124924429D01*
X121067143Y-125281571D02*
X121638572Y-125281571D01*
X121281429Y-124781571D02*
X121281429Y-126067286D01*
X121352857Y-126210143D01*
X121495715Y-126281571D01*
X121638572Y-126281571D01*
X122138572Y-126281571D02*
X122138572Y-124781571D01*
X122781429Y-126281571D02*
X122781429Y-125495857D01*
X122710000Y-125353000D01*
X122567143Y-125281571D01*
X122352858Y-125281571D01*
X122210000Y-125353000D01*
X122138572Y-125424429D01*
X124567143Y-126210143D02*
X124710000Y-126281571D01*
X124995715Y-126281571D01*
X125138572Y-126210143D01*
X125210000Y-126067286D01*
X125210000Y-125995857D01*
X125138572Y-125853000D01*
X124995715Y-125781571D01*
X124781429Y-125781571D01*
X124638572Y-125710143D01*
X124567143Y-125567286D01*
X124567143Y-125495857D01*
X124638572Y-125353000D01*
X124781429Y-125281571D01*
X124995715Y-125281571D01*
X125138572Y-125353000D01*
X125852858Y-126281571D02*
X125852858Y-124781571D01*
X126495715Y-126281571D02*
X126495715Y-125495857D01*
X126424286Y-125353000D01*
X126281429Y-125281571D01*
X126067144Y-125281571D01*
X125924286Y-125353000D01*
X125852858Y-125424429D01*
X127210001Y-126281571D02*
X127210001Y-125281571D01*
X127210001Y-124781571D02*
X127138572Y-124853000D01*
X127210001Y-124924429D01*
X127281429Y-124853000D01*
X127210001Y-124781571D01*
X127210001Y-124924429D01*
X127710001Y-125281571D02*
X128281430Y-125281571D01*
X127924287Y-126281571D02*
X127924287Y-124995857D01*
X127995715Y-124853000D01*
X128138573Y-124781571D01*
X128281430Y-124781571D01*
X128567144Y-125281571D02*
X129138573Y-125281571D01*
X128781430Y-124781571D02*
X128781430Y-126067286D01*
X128852858Y-126210143D01*
X128995716Y-126281571D01*
X129138573Y-126281571D01*
X130781430Y-126281571D02*
X130781430Y-125281571D01*
X130781430Y-125567286D02*
X130852858Y-125424429D01*
X130924287Y-125353000D01*
X131067144Y-125281571D01*
X131210001Y-125281571D01*
X132281429Y-126210143D02*
X132138572Y-126281571D01*
X131852858Y-126281571D01*
X131710001Y-126210143D01*
X131638572Y-126067286D01*
X131638572Y-125495857D01*
X131710001Y-125353000D01*
X131852858Y-125281571D01*
X132138572Y-125281571D01*
X132281429Y-125353000D01*
X132352858Y-125495857D01*
X132352858Y-125638714D01*
X131638572Y-125781571D01*
X133638572Y-125281571D02*
X133638572Y-126495857D01*
X133567143Y-126638714D01*
X133495715Y-126710143D01*
X133352858Y-126781571D01*
X133138572Y-126781571D01*
X132995715Y-126710143D01*
X133638572Y-126210143D02*
X133495715Y-126281571D01*
X133210001Y-126281571D01*
X133067143Y-126210143D01*
X132995715Y-126138714D01*
X132924286Y-125995857D01*
X132924286Y-125567286D01*
X132995715Y-125424429D01*
X133067143Y-125353000D01*
X133210001Y-125281571D01*
X133495715Y-125281571D01*
X133638572Y-125353000D01*
X134352858Y-126281571D02*
X134352858Y-125281571D01*
X134352858Y-124781571D02*
X134281429Y-124853000D01*
X134352858Y-124924429D01*
X134424286Y-124853000D01*
X134352858Y-124781571D01*
X134352858Y-124924429D01*
X134995715Y-126210143D02*
X135138572Y-126281571D01*
X135424287Y-126281571D01*
X135567144Y-126210143D01*
X135638572Y-126067286D01*
X135638572Y-125995857D01*
X135567144Y-125853000D01*
X135424287Y-125781571D01*
X135210001Y-125781571D01*
X135067144Y-125710143D01*
X134995715Y-125567286D01*
X134995715Y-125495857D01*
X135067144Y-125353000D01*
X135210001Y-125281571D01*
X135424287Y-125281571D01*
X135567144Y-125353000D01*
X136067144Y-125281571D02*
X136638573Y-125281571D01*
X136281430Y-124781571D02*
X136281430Y-126067286D01*
X136352858Y-126210143D01*
X136495716Y-126281571D01*
X136638573Y-126281571D01*
X137710001Y-126210143D02*
X137567144Y-126281571D01*
X137281430Y-126281571D01*
X137138573Y-126210143D01*
X137067144Y-126067286D01*
X137067144Y-125495857D01*
X137138573Y-125353000D01*
X137281430Y-125281571D01*
X137567144Y-125281571D01*
X137710001Y-125353000D01*
X137781430Y-125495857D01*
X137781430Y-125638714D01*
X137067144Y-125781571D01*
X138424287Y-126281571D02*
X138424287Y-125281571D01*
X138424287Y-125567286D02*
X138495715Y-125424429D01*
X138567144Y-125353000D01*
X138710001Y-125281571D01*
X138852858Y-125281571D01*
X139281429Y-126210143D02*
X139424286Y-126281571D01*
X139710001Y-126281571D01*
X139852858Y-126210143D01*
X139924286Y-126067286D01*
X139924286Y-125995857D01*
X139852858Y-125853000D01*
X139710001Y-125781571D01*
X139495715Y-125781571D01*
X139352858Y-125710143D01*
X139281429Y-125567286D01*
X139281429Y-125495857D01*
X139352858Y-125353000D01*
X139495715Y-125281571D01*
X139710001Y-125281571D01*
X139852858Y-125353000D01*
D12*
X122643114Y-118463606D02*
G75*
G03X128308100Y-118465600I2832886J1115606D01*
G01*
X128308100Y-116230400D02*
G75*
G03X122643900Y-116230400I-2832100J-1117600D01*
G01*
X128778000Y-120650000D02*
X128778000Y-118465600D01*
X128778000Y-114046000D02*
X128778000Y-116230400D01*
X122174000Y-119888000D02*
X122174000Y-118465600D01*
X122174000Y-114808000D02*
X122174000Y-116230400D01*
X128778000Y-120650000D02*
X122936000Y-120650000D01*
X122936000Y-120650000D02*
X122174000Y-119888000D01*
X122174000Y-114808000D02*
X122936000Y-114046000D01*
X122936000Y-114046000D02*
X128778000Y-114046000D01*
X95936000Y-125210000D02*
X98636000Y-125210000D01*
X95936000Y-123710000D02*
X98636000Y-123710000D01*
X97436000Y-124610000D02*
X97436000Y-124360000D01*
X97436000Y-124360000D02*
X97286000Y-124510000D01*
X97186000Y-124110000D02*
X97186000Y-124810000D01*
X97536000Y-124460000D02*
X97886000Y-124460000D01*
X97186000Y-124460000D02*
X97536000Y-124110000D01*
X97536000Y-124110000D02*
X97536000Y-124810000D01*
X97536000Y-124810000D02*
X97186000Y-124460000D01*
X95936000Y-120638000D02*
X98636000Y-120638000D01*
X95936000Y-119138000D02*
X98636000Y-119138000D01*
X97436000Y-120038000D02*
X97436000Y-119788000D01*
X97436000Y-119788000D02*
X97286000Y-119938000D01*
X97186000Y-119538000D02*
X97186000Y-120238000D01*
X97536000Y-119888000D02*
X97886000Y-119888000D01*
X97186000Y-119888000D02*
X97536000Y-119538000D01*
X97536000Y-119538000D02*
X97536000Y-120238000D01*
X97536000Y-120238000D02*
X97186000Y-119888000D01*
X95936000Y-116066000D02*
X98636000Y-116066000D01*
X95936000Y-114566000D02*
X98636000Y-114566000D01*
X97436000Y-115466000D02*
X97436000Y-115216000D01*
X97436000Y-115216000D02*
X97286000Y-115366000D01*
X97186000Y-114966000D02*
X97186000Y-115666000D01*
X97536000Y-115316000D02*
X97886000Y-115316000D01*
X97186000Y-115316000D02*
X97536000Y-114966000D01*
X97536000Y-114966000D02*
X97536000Y-115666000D01*
X97536000Y-115666000D02*
X97186000Y-115316000D01*
X95936000Y-111494000D02*
X98636000Y-111494000D01*
X95936000Y-109994000D02*
X98636000Y-109994000D01*
X97436000Y-110894000D02*
X97436000Y-110644000D01*
X97436000Y-110644000D02*
X97286000Y-110794000D01*
X97186000Y-110394000D02*
X97186000Y-111094000D01*
X97536000Y-110744000D02*
X97886000Y-110744000D01*
X97186000Y-110744000D02*
X97536000Y-110394000D01*
X97536000Y-110394000D02*
X97536000Y-111094000D01*
X97536000Y-111094000D02*
X97186000Y-110744000D01*
X95936000Y-106922000D02*
X98636000Y-106922000D01*
X95936000Y-105422000D02*
X98636000Y-105422000D01*
X97436000Y-106322000D02*
X97436000Y-106072000D01*
X97436000Y-106072000D02*
X97286000Y-106222000D01*
X97186000Y-105822000D02*
X97186000Y-106522000D01*
X97536000Y-106172000D02*
X97886000Y-106172000D01*
X97186000Y-106172000D02*
X97536000Y-105822000D01*
X97536000Y-105822000D02*
X97536000Y-106522000D01*
X97536000Y-106522000D02*
X97186000Y-106172000D01*
X95936000Y-102350000D02*
X98636000Y-102350000D01*
X95936000Y-100850000D02*
X98636000Y-100850000D01*
X97436000Y-101750000D02*
X97436000Y-101500000D01*
X97436000Y-101500000D02*
X97286000Y-101650000D01*
X97186000Y-101250000D02*
X97186000Y-101950000D01*
X97536000Y-101600000D02*
X97886000Y-101600000D01*
X97186000Y-101600000D02*
X97536000Y-101250000D01*
X97536000Y-101250000D02*
X97536000Y-101950000D01*
X97536000Y-101950000D02*
X97186000Y-101600000D01*
X95936000Y-97778000D02*
X98636000Y-97778000D01*
X95936000Y-96278000D02*
X98636000Y-96278000D01*
X97436000Y-97178000D02*
X97436000Y-96928000D01*
X97436000Y-96928000D02*
X97286000Y-97078000D01*
X97186000Y-96678000D02*
X97186000Y-97378000D01*
X97536000Y-97028000D02*
X97886000Y-97028000D01*
X97186000Y-97028000D02*
X97536000Y-96678000D01*
X97536000Y-96678000D02*
X97536000Y-97378000D01*
X97536000Y-97378000D02*
X97186000Y-97028000D01*
X95936000Y-93206000D02*
X98636000Y-93206000D01*
X95936000Y-91706000D02*
X98636000Y-91706000D01*
X97436000Y-92606000D02*
X97436000Y-92356000D01*
X97436000Y-92356000D02*
X97286000Y-92506000D01*
X97186000Y-92106000D02*
X97186000Y-92806000D01*
X97536000Y-92456000D02*
X97886000Y-92456000D01*
X97186000Y-92456000D02*
X97536000Y-92106000D01*
X97536000Y-92106000D02*
X97536000Y-92806000D01*
X97536000Y-92806000D02*
X97186000Y-92456000D01*
X155524000Y-123710000D02*
X152824000Y-123710000D01*
X155524000Y-125210000D02*
X152824000Y-125210000D01*
X154024000Y-124310000D02*
X154024000Y-124560000D01*
X154024000Y-124560000D02*
X154174000Y-124410000D01*
X154274000Y-124810000D02*
X154274000Y-124110000D01*
X153924000Y-124460000D02*
X153574000Y-124460000D01*
X154274000Y-124460000D02*
X153924000Y-124810000D01*
X153924000Y-124810000D02*
X153924000Y-124110000D01*
X153924000Y-124110000D02*
X154274000Y-124460000D01*
X155524000Y-119138000D02*
X152824000Y-119138000D01*
X155524000Y-120638000D02*
X152824000Y-120638000D01*
X154024000Y-119738000D02*
X154024000Y-119988000D01*
X154024000Y-119988000D02*
X154174000Y-119838000D01*
X154274000Y-120238000D02*
X154274000Y-119538000D01*
X153924000Y-119888000D02*
X153574000Y-119888000D01*
X154274000Y-119888000D02*
X153924000Y-120238000D01*
X153924000Y-120238000D02*
X153924000Y-119538000D01*
X153924000Y-119538000D02*
X154274000Y-119888000D01*
X155524000Y-114566000D02*
X152824000Y-114566000D01*
X155524000Y-116066000D02*
X152824000Y-116066000D01*
X154024000Y-115166000D02*
X154024000Y-115416000D01*
X154024000Y-115416000D02*
X154174000Y-115266000D01*
X154274000Y-115666000D02*
X154274000Y-114966000D01*
X153924000Y-115316000D02*
X153574000Y-115316000D01*
X154274000Y-115316000D02*
X153924000Y-115666000D01*
X153924000Y-115666000D02*
X153924000Y-114966000D01*
X153924000Y-114966000D02*
X154274000Y-115316000D01*
X155524000Y-109994000D02*
X152824000Y-109994000D01*
X155524000Y-111494000D02*
X152824000Y-111494000D01*
X154024000Y-110594000D02*
X154024000Y-110844000D01*
X154024000Y-110844000D02*
X154174000Y-110694000D01*
X154274000Y-111094000D02*
X154274000Y-110394000D01*
X153924000Y-110744000D02*
X153574000Y-110744000D01*
X154274000Y-110744000D02*
X153924000Y-111094000D01*
X153924000Y-111094000D02*
X153924000Y-110394000D01*
X153924000Y-110394000D02*
X154274000Y-110744000D01*
X155524000Y-105422000D02*
X152824000Y-105422000D01*
X155524000Y-106922000D02*
X152824000Y-106922000D01*
X154024000Y-106022000D02*
X154024000Y-106272000D01*
X154024000Y-106272000D02*
X154174000Y-106122000D01*
X154274000Y-106522000D02*
X154274000Y-105822000D01*
X153924000Y-106172000D02*
X153574000Y-106172000D01*
X154274000Y-106172000D02*
X153924000Y-106522000D01*
X153924000Y-106522000D02*
X153924000Y-105822000D01*
X153924000Y-105822000D02*
X154274000Y-106172000D01*
X155524000Y-100850000D02*
X152824000Y-100850000D01*
X155524000Y-102350000D02*
X152824000Y-102350000D01*
X154024000Y-101450000D02*
X154024000Y-101700000D01*
X154024000Y-101700000D02*
X154174000Y-101550000D01*
X154274000Y-101950000D02*
X154274000Y-101250000D01*
X153924000Y-101600000D02*
X153574000Y-101600000D01*
X154274000Y-101600000D02*
X153924000Y-101950000D01*
X153924000Y-101950000D02*
X153924000Y-101250000D01*
X153924000Y-101250000D02*
X154274000Y-101600000D01*
X155524000Y-96278000D02*
X152824000Y-96278000D01*
X155524000Y-97778000D02*
X152824000Y-97778000D01*
X154024000Y-96878000D02*
X154024000Y-97128000D01*
X154024000Y-97128000D02*
X154174000Y-96978000D01*
X154274000Y-97378000D02*
X154274000Y-96678000D01*
X153924000Y-97028000D02*
X153574000Y-97028000D01*
X154274000Y-97028000D02*
X153924000Y-97378000D01*
X153924000Y-97378000D02*
X153924000Y-96678000D01*
X153924000Y-96678000D02*
X154274000Y-97028000D01*
X155524000Y-91706000D02*
X152824000Y-91706000D01*
X155524000Y-93206000D02*
X152824000Y-93206000D01*
X154024000Y-92306000D02*
X154024000Y-92556000D01*
X154024000Y-92556000D02*
X154174000Y-92406000D01*
X154274000Y-92806000D02*
X154274000Y-92106000D01*
X153924000Y-92456000D02*
X153574000Y-92456000D01*
X154274000Y-92456000D02*
X153924000Y-92806000D01*
X153924000Y-92806000D02*
X153924000Y-92106000D01*
X153924000Y-92106000D02*
X154274000Y-92456000D01*
X131064000Y-94462000D02*
X132614000Y-94462000D01*
X132614000Y-94462000D02*
X132614000Y-97562000D01*
X132614000Y-97562000D02*
X131064000Y-97562000D01*
X129794000Y-97282000D02*
X119634000Y-97282000D01*
X119634000Y-97282000D02*
X119634000Y-94742000D01*
X119634000Y-94742000D02*
X129794000Y-94742000D01*
X129794000Y-97282000D02*
X129794000Y-94742000D01*
X104556000Y-123585000D02*
X105756000Y-123585000D01*
X105756000Y-125335000D02*
X104556000Y-125335000D01*
X104556000Y-119013000D02*
X105756000Y-119013000D01*
X105756000Y-120763000D02*
X104556000Y-120763000D01*
X104556000Y-114441000D02*
X105756000Y-114441000D01*
X105756000Y-116191000D02*
X104556000Y-116191000D01*
X104556000Y-109869000D02*
X105756000Y-109869000D01*
X105756000Y-111619000D02*
X104556000Y-111619000D01*
X104556000Y-105297000D02*
X105756000Y-105297000D01*
X105756000Y-107047000D02*
X104556000Y-107047000D01*
X104556000Y-100725000D02*
X105756000Y-100725000D01*
X105756000Y-102475000D02*
X104556000Y-102475000D01*
X104556000Y-96153000D02*
X105756000Y-96153000D01*
X105756000Y-97903000D02*
X104556000Y-97903000D01*
X104556000Y-91581000D02*
X105756000Y-91581000D01*
X105756000Y-93331000D02*
X104556000Y-93331000D01*
X146904000Y-125335000D02*
X145704000Y-125335000D01*
X145704000Y-123585000D02*
X146904000Y-123585000D01*
X146904000Y-120763000D02*
X145704000Y-120763000D01*
X145704000Y-119013000D02*
X146904000Y-119013000D01*
X146904000Y-116191000D02*
X145704000Y-116191000D01*
X145704000Y-114441000D02*
X146904000Y-114441000D01*
X146904000Y-111619000D02*
X145704000Y-111619000D01*
X145704000Y-109869000D02*
X146904000Y-109869000D01*
X146904000Y-107047000D02*
X145704000Y-107047000D01*
X145704000Y-105297000D02*
X146904000Y-105297000D01*
X146904000Y-102475000D02*
X145704000Y-102475000D01*
X145704000Y-100725000D02*
X146904000Y-100725000D01*
X146904000Y-97903000D02*
X145704000Y-97903000D01*
X145704000Y-96153000D02*
X146904000Y-96153000D01*
X146904000Y-93331000D02*
X145704000Y-93331000D01*
X145704000Y-91581000D02*
X146904000Y-91581000D01*
X115062000Y-112268000D02*
X115062000Y-111506000D01*
X115062000Y-111506000D02*
X116586000Y-111506000D01*
X116586000Y-111506000D02*
X116586000Y-112268000D01*
X113538000Y-101092000D02*
X118110000Y-101092000D01*
X118110000Y-101092000D02*
X118110000Y-112268000D01*
X118110000Y-112268000D02*
X113538000Y-112268000D01*
X113538000Y-112268000D02*
X113538000Y-101092000D01*
X134874000Y-112268000D02*
X134874000Y-111506000D01*
X134874000Y-111506000D02*
X136398000Y-111506000D01*
X136398000Y-111506000D02*
X136398000Y-112268000D01*
X133350000Y-101092000D02*
X137922000Y-101092000D01*
X137922000Y-101092000D02*
X137922000Y-112268000D01*
X137922000Y-112268000D02*
X133350000Y-112268000D01*
X133350000Y-112268000D02*
X133350000Y-101092000D01*
X100025000Y-135648000D02*
X97325000Y-135648000D01*
X100025000Y-137148000D02*
X97325000Y-137148000D01*
X98525000Y-136248000D02*
X98525000Y-136498000D01*
X98525000Y-136498000D02*
X98675000Y-136348000D01*
X98775000Y-136748000D02*
X98775000Y-136048000D01*
X98425000Y-136398000D02*
X98075000Y-136398000D01*
X98775000Y-136398000D02*
X98425000Y-136748000D01*
X98425000Y-136748000D02*
X98425000Y-136048000D01*
X98425000Y-136048000D02*
X98775000Y-136398000D01*
X106057500Y-135648000D02*
X103357500Y-135648000D01*
X106057500Y-137148000D02*
X103357500Y-137148000D01*
X104557500Y-136248000D02*
X104557500Y-136498000D01*
X104557500Y-136498000D02*
X104707500Y-136348000D01*
X104807500Y-136748000D02*
X104807500Y-136048000D01*
X104457500Y-136398000D02*
X104107500Y-136398000D01*
X104807500Y-136398000D02*
X104457500Y-136748000D01*
X104457500Y-136748000D02*
X104457500Y-136048000D01*
X104457500Y-136048000D02*
X104807500Y-136398000D01*
X111963000Y-135648000D02*
X109263000Y-135648000D01*
X111963000Y-137148000D02*
X109263000Y-137148000D01*
X110463000Y-136248000D02*
X110463000Y-136498000D01*
X110463000Y-136498000D02*
X110613000Y-136348000D01*
X110713000Y-136748000D02*
X110713000Y-136048000D01*
X110363000Y-136398000D02*
X110013000Y-136398000D01*
X110713000Y-136398000D02*
X110363000Y-136748000D01*
X110363000Y-136748000D02*
X110363000Y-136048000D01*
X110363000Y-136048000D02*
X110713000Y-136398000D01*
X117424000Y-135648000D02*
X114724000Y-135648000D01*
X117424000Y-137148000D02*
X114724000Y-137148000D01*
X115924000Y-136248000D02*
X115924000Y-136498000D01*
X115924000Y-136498000D02*
X116074000Y-136348000D01*
X116174000Y-136748000D02*
X116174000Y-136048000D01*
X115824000Y-136398000D02*
X115474000Y-136398000D01*
X116174000Y-136398000D02*
X115824000Y-136748000D01*
X115824000Y-136748000D02*
X115824000Y-136048000D01*
X115824000Y-136048000D02*
X116174000Y-136398000D01*
X133909000Y-137148000D02*
X136609000Y-137148000D01*
X133909000Y-135648000D02*
X136609000Y-135648000D01*
X135409000Y-136548000D02*
X135409000Y-136298000D01*
X135409000Y-136298000D02*
X135259000Y-136448000D01*
X135159000Y-136048000D02*
X135159000Y-136748000D01*
X135509000Y-136398000D02*
X135859000Y-136398000D01*
X135159000Y-136398000D02*
X135509000Y-136048000D01*
X135509000Y-136048000D02*
X135509000Y-136748000D01*
X135509000Y-136748000D02*
X135159000Y-136398000D01*
X140005000Y-137148000D02*
X142705000Y-137148000D01*
X140005000Y-135648000D02*
X142705000Y-135648000D01*
X141505000Y-136548000D02*
X141505000Y-136298000D01*
X141505000Y-136298000D02*
X141355000Y-136448000D01*
X141255000Y-136048000D02*
X141255000Y-136748000D01*
X141605000Y-136398000D02*
X141955000Y-136398000D01*
X141255000Y-136398000D02*
X141605000Y-136048000D01*
X141605000Y-136048000D02*
X141605000Y-136748000D01*
X141605000Y-136748000D02*
X141255000Y-136398000D01*
X145593000Y-137148000D02*
X148293000Y-137148000D01*
X145593000Y-135648000D02*
X148293000Y-135648000D01*
X147093000Y-136548000D02*
X147093000Y-136298000D01*
X147093000Y-136298000D02*
X146943000Y-136448000D01*
X146843000Y-136048000D02*
X146843000Y-136748000D01*
X147193000Y-136398000D02*
X147543000Y-136398000D01*
X146843000Y-136398000D02*
X147193000Y-136048000D01*
X147193000Y-136048000D02*
X147193000Y-136748000D01*
X147193000Y-136748000D02*
X146843000Y-136398000D01*
X151181000Y-137148000D02*
X153881000Y-137148000D01*
X151181000Y-135648000D02*
X153881000Y-135648000D01*
X152681000Y-136548000D02*
X152681000Y-136298000D01*
X152681000Y-136298000D02*
X152531000Y-136448000D01*
X152431000Y-136048000D02*
X152431000Y-136748000D01*
X152781000Y-136398000D02*
X153131000Y-136398000D01*
X152431000Y-136398000D02*
X152781000Y-136048000D01*
X152781000Y-136048000D02*
X152781000Y-136748000D01*
X152781000Y-136748000D02*
X152431000Y-136398000D01*
X96534000Y-131918000D02*
X96534000Y-130718000D01*
X98284000Y-130718000D02*
X98284000Y-131918000D01*
X102503000Y-131918000D02*
X102503000Y-130718000D01*
X104253000Y-130718000D02*
X104253000Y-131918000D01*
X108345000Y-131918000D02*
X108345000Y-130718000D01*
X110095000Y-130718000D02*
X110095000Y-131918000D01*
X113933000Y-131918000D02*
X113933000Y-130718000D01*
X115683000Y-130718000D02*
X115683000Y-131918000D01*
X135650000Y-131918000D02*
X135650000Y-130718000D01*
X137400000Y-130718000D02*
X137400000Y-131918000D01*
X141746000Y-131918000D02*
X141746000Y-130718000D01*
X143496000Y-130718000D02*
X143496000Y-131918000D01*
X147334000Y-131918000D02*
X147334000Y-130718000D01*
X149084000Y-130718000D02*
X149084000Y-131918000D01*
X152922000Y-131918000D02*
X152922000Y-130718000D01*
X154672000Y-130718000D02*
X154672000Y-131918000D01*
X119761000Y-129540000D02*
X120523000Y-129540000D01*
X120523000Y-129540000D02*
X120523000Y-131064000D01*
X120523000Y-131064000D02*
X119761000Y-131064000D01*
X130937000Y-128016000D02*
X130937000Y-132588000D01*
X130937000Y-132588000D02*
X119761000Y-132588000D01*
X119761000Y-132588000D02*
X119761000Y-128016000D01*
X119761000Y-128016000D02*
X130937000Y-128016000D01*
X125309334Y-122264443D02*
X125261715Y-122312062D01*
X125118858Y-122359681D01*
X125023620Y-122359681D01*
X124880762Y-122312062D01*
X124785524Y-122216824D01*
X124737905Y-122121586D01*
X124690286Y-121931110D01*
X124690286Y-121788252D01*
X124737905Y-121597776D01*
X124785524Y-121502538D01*
X124880762Y-121407300D01*
X125023620Y-121359681D01*
X125118858Y-121359681D01*
X125261715Y-121407300D01*
X125309334Y-121454919D01*
X126261715Y-122359681D02*
X125690286Y-122359681D01*
X125976000Y-122359681D02*
X125976000Y-121359681D01*
X125880762Y-121502538D01*
X125785524Y-121597776D01*
X125690286Y-121645395D01*
X120815148Y-120429329D02*
X121577053Y-120429329D01*
X121196101Y-120810281D02*
X121196101Y-120048376D01*
X96797905Y-123162381D02*
X96797905Y-122162381D01*
X97036000Y-122162381D01*
X97178858Y-122210000D01*
X97274096Y-122305238D01*
X97321715Y-122400476D01*
X97369334Y-122590952D01*
X97369334Y-122733810D01*
X97321715Y-122924286D01*
X97274096Y-123019524D01*
X97178858Y-123114762D01*
X97036000Y-123162381D01*
X96797905Y-123162381D01*
X98321715Y-123162381D02*
X97750286Y-123162381D01*
X98036000Y-123162381D02*
X98036000Y-122162381D01*
X97940762Y-122305238D01*
X97845524Y-122400476D01*
X97750286Y-122448095D01*
X96797905Y-118590381D02*
X96797905Y-117590381D01*
X97036000Y-117590381D01*
X97178858Y-117638000D01*
X97274096Y-117733238D01*
X97321715Y-117828476D01*
X97369334Y-118018952D01*
X97369334Y-118161810D01*
X97321715Y-118352286D01*
X97274096Y-118447524D01*
X97178858Y-118542762D01*
X97036000Y-118590381D01*
X96797905Y-118590381D01*
X97750286Y-117685619D02*
X97797905Y-117638000D01*
X97893143Y-117590381D01*
X98131239Y-117590381D01*
X98226477Y-117638000D01*
X98274096Y-117685619D01*
X98321715Y-117780857D01*
X98321715Y-117876095D01*
X98274096Y-118018952D01*
X97702667Y-118590381D01*
X98321715Y-118590381D01*
X96797905Y-114018381D02*
X96797905Y-113018381D01*
X97036000Y-113018381D01*
X97178858Y-113066000D01*
X97274096Y-113161238D01*
X97321715Y-113256476D01*
X97369334Y-113446952D01*
X97369334Y-113589810D01*
X97321715Y-113780286D01*
X97274096Y-113875524D01*
X97178858Y-113970762D01*
X97036000Y-114018381D01*
X96797905Y-114018381D01*
X97702667Y-113018381D02*
X98321715Y-113018381D01*
X97988381Y-113399333D01*
X98131239Y-113399333D01*
X98226477Y-113446952D01*
X98274096Y-113494571D01*
X98321715Y-113589810D01*
X98321715Y-113827905D01*
X98274096Y-113923143D01*
X98226477Y-113970762D01*
X98131239Y-114018381D01*
X97845524Y-114018381D01*
X97750286Y-113970762D01*
X97702667Y-113923143D01*
X96797905Y-109446381D02*
X96797905Y-108446381D01*
X97036000Y-108446381D01*
X97178858Y-108494000D01*
X97274096Y-108589238D01*
X97321715Y-108684476D01*
X97369334Y-108874952D01*
X97369334Y-109017810D01*
X97321715Y-109208286D01*
X97274096Y-109303524D01*
X97178858Y-109398762D01*
X97036000Y-109446381D01*
X96797905Y-109446381D01*
X98226477Y-108779714D02*
X98226477Y-109446381D01*
X97988381Y-108398762D02*
X97750286Y-109113048D01*
X98369334Y-109113048D01*
X96797905Y-104874381D02*
X96797905Y-103874381D01*
X97036000Y-103874381D01*
X97178858Y-103922000D01*
X97274096Y-104017238D01*
X97321715Y-104112476D01*
X97369334Y-104302952D01*
X97369334Y-104445810D01*
X97321715Y-104636286D01*
X97274096Y-104731524D01*
X97178858Y-104826762D01*
X97036000Y-104874381D01*
X96797905Y-104874381D01*
X98274096Y-103874381D02*
X97797905Y-103874381D01*
X97750286Y-104350571D01*
X97797905Y-104302952D01*
X97893143Y-104255333D01*
X98131239Y-104255333D01*
X98226477Y-104302952D01*
X98274096Y-104350571D01*
X98321715Y-104445810D01*
X98321715Y-104683905D01*
X98274096Y-104779143D01*
X98226477Y-104826762D01*
X98131239Y-104874381D01*
X97893143Y-104874381D01*
X97797905Y-104826762D01*
X97750286Y-104779143D01*
X96797905Y-100302381D02*
X96797905Y-99302381D01*
X97036000Y-99302381D01*
X97178858Y-99350000D01*
X97274096Y-99445238D01*
X97321715Y-99540476D01*
X97369334Y-99730952D01*
X97369334Y-99873810D01*
X97321715Y-100064286D01*
X97274096Y-100159524D01*
X97178858Y-100254762D01*
X97036000Y-100302381D01*
X96797905Y-100302381D01*
X98226477Y-99302381D02*
X98036000Y-99302381D01*
X97940762Y-99350000D01*
X97893143Y-99397619D01*
X97797905Y-99540476D01*
X97750286Y-99730952D01*
X97750286Y-100111905D01*
X97797905Y-100207143D01*
X97845524Y-100254762D01*
X97940762Y-100302381D01*
X98131239Y-100302381D01*
X98226477Y-100254762D01*
X98274096Y-100207143D01*
X98321715Y-100111905D01*
X98321715Y-99873810D01*
X98274096Y-99778571D01*
X98226477Y-99730952D01*
X98131239Y-99683333D01*
X97940762Y-99683333D01*
X97845524Y-99730952D01*
X97797905Y-99778571D01*
X97750286Y-99873810D01*
X96797905Y-95730381D02*
X96797905Y-94730381D01*
X97036000Y-94730381D01*
X97178858Y-94778000D01*
X97274096Y-94873238D01*
X97321715Y-94968476D01*
X97369334Y-95158952D01*
X97369334Y-95301810D01*
X97321715Y-95492286D01*
X97274096Y-95587524D01*
X97178858Y-95682762D01*
X97036000Y-95730381D01*
X96797905Y-95730381D01*
X97702667Y-94730381D02*
X98369334Y-94730381D01*
X97940762Y-95730381D01*
X96797905Y-91158381D02*
X96797905Y-90158381D01*
X97036000Y-90158381D01*
X97178858Y-90206000D01*
X97274096Y-90301238D01*
X97321715Y-90396476D01*
X97369334Y-90586952D01*
X97369334Y-90729810D01*
X97321715Y-90920286D01*
X97274096Y-91015524D01*
X97178858Y-91110762D01*
X97036000Y-91158381D01*
X96797905Y-91158381D01*
X97940762Y-90586952D02*
X97845524Y-90539333D01*
X97797905Y-90491714D01*
X97750286Y-90396476D01*
X97750286Y-90348857D01*
X97797905Y-90253619D01*
X97845524Y-90206000D01*
X97940762Y-90158381D01*
X98131239Y-90158381D01*
X98226477Y-90206000D01*
X98274096Y-90253619D01*
X98321715Y-90348857D01*
X98321715Y-90396476D01*
X98274096Y-90491714D01*
X98226477Y-90539333D01*
X98131239Y-90586952D01*
X97940762Y-90586952D01*
X97845524Y-90634571D01*
X97797905Y-90682190D01*
X97750286Y-90777429D01*
X97750286Y-90967905D01*
X97797905Y-91063143D01*
X97845524Y-91110762D01*
X97940762Y-91158381D01*
X98131239Y-91158381D01*
X98226477Y-91110762D01*
X98274096Y-91063143D01*
X98321715Y-90967905D01*
X98321715Y-90777429D01*
X98274096Y-90682190D01*
X98226477Y-90634571D01*
X98131239Y-90586952D01*
X153185905Y-126662381D02*
X153185905Y-125662381D01*
X153424000Y-125662381D01*
X153566858Y-125710000D01*
X153662096Y-125805238D01*
X153709715Y-125900476D01*
X153757334Y-126090952D01*
X153757334Y-126233810D01*
X153709715Y-126424286D01*
X153662096Y-126519524D01*
X153566858Y-126614762D01*
X153424000Y-126662381D01*
X153185905Y-126662381D01*
X154233524Y-126662381D02*
X154424000Y-126662381D01*
X154519239Y-126614762D01*
X154566858Y-126567143D01*
X154662096Y-126424286D01*
X154709715Y-126233810D01*
X154709715Y-125852857D01*
X154662096Y-125757619D01*
X154614477Y-125710000D01*
X154519239Y-125662381D01*
X154328762Y-125662381D01*
X154233524Y-125710000D01*
X154185905Y-125757619D01*
X154138286Y-125852857D01*
X154138286Y-126090952D01*
X154185905Y-126186190D01*
X154233524Y-126233810D01*
X154328762Y-126281429D01*
X154519239Y-126281429D01*
X154614477Y-126233810D01*
X154662096Y-126186190D01*
X154709715Y-126090952D01*
X152709714Y-122090381D02*
X152709714Y-121090381D01*
X152947809Y-121090381D01*
X153090667Y-121138000D01*
X153185905Y-121233238D01*
X153233524Y-121328476D01*
X153281143Y-121518952D01*
X153281143Y-121661810D01*
X153233524Y-121852286D01*
X153185905Y-121947524D01*
X153090667Y-122042762D01*
X152947809Y-122090381D01*
X152709714Y-122090381D01*
X154233524Y-122090381D02*
X153662095Y-122090381D01*
X153947809Y-122090381D02*
X153947809Y-121090381D01*
X153852571Y-121233238D01*
X153757333Y-121328476D01*
X153662095Y-121376095D01*
X154852571Y-121090381D02*
X154947810Y-121090381D01*
X155043048Y-121138000D01*
X155090667Y-121185619D01*
X155138286Y-121280857D01*
X155185905Y-121471333D01*
X155185905Y-121709429D01*
X155138286Y-121899905D01*
X155090667Y-121995143D01*
X155043048Y-122042762D01*
X154947810Y-122090381D01*
X154852571Y-122090381D01*
X154757333Y-122042762D01*
X154709714Y-121995143D01*
X154662095Y-121899905D01*
X154614476Y-121709429D01*
X154614476Y-121471333D01*
X154662095Y-121280857D01*
X154709714Y-121185619D01*
X154757333Y-121138000D01*
X154852571Y-121090381D01*
X152709714Y-117518381D02*
X152709714Y-116518381D01*
X152947809Y-116518381D01*
X153090667Y-116566000D01*
X153185905Y-116661238D01*
X153233524Y-116756476D01*
X153281143Y-116946952D01*
X153281143Y-117089810D01*
X153233524Y-117280286D01*
X153185905Y-117375524D01*
X153090667Y-117470762D01*
X152947809Y-117518381D01*
X152709714Y-117518381D01*
X154233524Y-117518381D02*
X153662095Y-117518381D01*
X153947809Y-117518381D02*
X153947809Y-116518381D01*
X153852571Y-116661238D01*
X153757333Y-116756476D01*
X153662095Y-116804095D01*
X155185905Y-117518381D02*
X154614476Y-117518381D01*
X154900190Y-117518381D02*
X154900190Y-116518381D01*
X154804952Y-116661238D01*
X154709714Y-116756476D01*
X154614476Y-116804095D01*
X152709714Y-112946381D02*
X152709714Y-111946381D01*
X152947809Y-111946381D01*
X153090667Y-111994000D01*
X153185905Y-112089238D01*
X153233524Y-112184476D01*
X153281143Y-112374952D01*
X153281143Y-112517810D01*
X153233524Y-112708286D01*
X153185905Y-112803524D01*
X153090667Y-112898762D01*
X152947809Y-112946381D01*
X152709714Y-112946381D01*
X154233524Y-112946381D02*
X153662095Y-112946381D01*
X153947809Y-112946381D02*
X153947809Y-111946381D01*
X153852571Y-112089238D01*
X153757333Y-112184476D01*
X153662095Y-112232095D01*
X154614476Y-112041619D02*
X154662095Y-111994000D01*
X154757333Y-111946381D01*
X154995429Y-111946381D01*
X155090667Y-111994000D01*
X155138286Y-112041619D01*
X155185905Y-112136857D01*
X155185905Y-112232095D01*
X155138286Y-112374952D01*
X154566857Y-112946381D01*
X155185905Y-112946381D01*
X152709714Y-108374381D02*
X152709714Y-107374381D01*
X152947809Y-107374381D01*
X153090667Y-107422000D01*
X153185905Y-107517238D01*
X153233524Y-107612476D01*
X153281143Y-107802952D01*
X153281143Y-107945810D01*
X153233524Y-108136286D01*
X153185905Y-108231524D01*
X153090667Y-108326762D01*
X152947809Y-108374381D01*
X152709714Y-108374381D01*
X154233524Y-108374381D02*
X153662095Y-108374381D01*
X153947809Y-108374381D02*
X153947809Y-107374381D01*
X153852571Y-107517238D01*
X153757333Y-107612476D01*
X153662095Y-107660095D01*
X154566857Y-107374381D02*
X155185905Y-107374381D01*
X154852571Y-107755333D01*
X154995429Y-107755333D01*
X155090667Y-107802952D01*
X155138286Y-107850571D01*
X155185905Y-107945810D01*
X155185905Y-108183905D01*
X155138286Y-108279143D01*
X155090667Y-108326762D01*
X154995429Y-108374381D01*
X154709714Y-108374381D01*
X154614476Y-108326762D01*
X154566857Y-108279143D01*
X152709714Y-103802381D02*
X152709714Y-102802381D01*
X152947809Y-102802381D01*
X153090667Y-102850000D01*
X153185905Y-102945238D01*
X153233524Y-103040476D01*
X153281143Y-103230952D01*
X153281143Y-103373810D01*
X153233524Y-103564286D01*
X153185905Y-103659524D01*
X153090667Y-103754762D01*
X152947809Y-103802381D01*
X152709714Y-103802381D01*
X154233524Y-103802381D02*
X153662095Y-103802381D01*
X153947809Y-103802381D02*
X153947809Y-102802381D01*
X153852571Y-102945238D01*
X153757333Y-103040476D01*
X153662095Y-103088095D01*
X155090667Y-103135714D02*
X155090667Y-103802381D01*
X154852571Y-102754762D02*
X154614476Y-103469048D01*
X155233524Y-103469048D01*
X152709714Y-99230381D02*
X152709714Y-98230381D01*
X152947809Y-98230381D01*
X153090667Y-98278000D01*
X153185905Y-98373238D01*
X153233524Y-98468476D01*
X153281143Y-98658952D01*
X153281143Y-98801810D01*
X153233524Y-98992286D01*
X153185905Y-99087524D01*
X153090667Y-99182762D01*
X152947809Y-99230381D01*
X152709714Y-99230381D01*
X154233524Y-99230381D02*
X153662095Y-99230381D01*
X153947809Y-99230381D02*
X153947809Y-98230381D01*
X153852571Y-98373238D01*
X153757333Y-98468476D01*
X153662095Y-98516095D01*
X155138286Y-98230381D02*
X154662095Y-98230381D01*
X154614476Y-98706571D01*
X154662095Y-98658952D01*
X154757333Y-98611333D01*
X154995429Y-98611333D01*
X155090667Y-98658952D01*
X155138286Y-98706571D01*
X155185905Y-98801810D01*
X155185905Y-99039905D01*
X155138286Y-99135143D01*
X155090667Y-99182762D01*
X154995429Y-99230381D01*
X154757333Y-99230381D01*
X154662095Y-99182762D01*
X154614476Y-99135143D01*
X152709714Y-94658381D02*
X152709714Y-93658381D01*
X152947809Y-93658381D01*
X153090667Y-93706000D01*
X153185905Y-93801238D01*
X153233524Y-93896476D01*
X153281143Y-94086952D01*
X153281143Y-94229810D01*
X153233524Y-94420286D01*
X153185905Y-94515524D01*
X153090667Y-94610762D01*
X152947809Y-94658381D01*
X152709714Y-94658381D01*
X154233524Y-94658381D02*
X153662095Y-94658381D01*
X153947809Y-94658381D02*
X153947809Y-93658381D01*
X153852571Y-93801238D01*
X153757333Y-93896476D01*
X153662095Y-93944095D01*
X155090667Y-93658381D02*
X154900190Y-93658381D01*
X154804952Y-93706000D01*
X154757333Y-93753619D01*
X154662095Y-93896476D01*
X154614476Y-94086952D01*
X154614476Y-94467905D01*
X154662095Y-94563143D01*
X154709714Y-94610762D01*
X154804952Y-94658381D01*
X154995429Y-94658381D01*
X155090667Y-94610762D01*
X155138286Y-94563143D01*
X155185905Y-94467905D01*
X155185905Y-94229810D01*
X155138286Y-94134571D01*
X155090667Y-94086952D01*
X154995429Y-94039333D01*
X154804952Y-94039333D01*
X154709714Y-94086952D01*
X154662095Y-94134571D01*
X154614476Y-94229810D01*
X136616381Y-96750095D02*
X135616381Y-96750095D01*
X135616381Y-96369142D01*
X135664000Y-96273904D01*
X135711619Y-96226285D01*
X135806857Y-96178666D01*
X135949714Y-96178666D01*
X136044952Y-96226285D01*
X136092571Y-96273904D01*
X136140190Y-96369142D01*
X136140190Y-96750095D01*
X136616381Y-95226285D02*
X136616381Y-95797714D01*
X136616381Y-95512000D02*
X135616381Y-95512000D01*
X135759238Y-95607238D01*
X135854476Y-95702476D01*
X135902095Y-95797714D01*
X104989334Y-127012381D02*
X104656000Y-126536190D01*
X104417905Y-127012381D02*
X104417905Y-126012381D01*
X104798858Y-126012381D01*
X104894096Y-126060000D01*
X104941715Y-126107619D01*
X104989334Y-126202857D01*
X104989334Y-126345714D01*
X104941715Y-126440952D01*
X104894096Y-126488571D01*
X104798858Y-126536190D01*
X104417905Y-126536190D01*
X105941715Y-127012381D02*
X105370286Y-127012381D01*
X105656000Y-127012381D02*
X105656000Y-126012381D01*
X105560762Y-126155238D01*
X105465524Y-126250476D01*
X105370286Y-126298095D01*
X104989334Y-122440381D02*
X104656000Y-121964190D01*
X104417905Y-122440381D02*
X104417905Y-121440381D01*
X104798858Y-121440381D01*
X104894096Y-121488000D01*
X104941715Y-121535619D01*
X104989334Y-121630857D01*
X104989334Y-121773714D01*
X104941715Y-121868952D01*
X104894096Y-121916571D01*
X104798858Y-121964190D01*
X104417905Y-121964190D01*
X105370286Y-121535619D02*
X105417905Y-121488000D01*
X105513143Y-121440381D01*
X105751239Y-121440381D01*
X105846477Y-121488000D01*
X105894096Y-121535619D01*
X105941715Y-121630857D01*
X105941715Y-121726095D01*
X105894096Y-121868952D01*
X105322667Y-122440381D01*
X105941715Y-122440381D01*
X104989334Y-117868381D02*
X104656000Y-117392190D01*
X104417905Y-117868381D02*
X104417905Y-116868381D01*
X104798858Y-116868381D01*
X104894096Y-116916000D01*
X104941715Y-116963619D01*
X104989334Y-117058857D01*
X104989334Y-117201714D01*
X104941715Y-117296952D01*
X104894096Y-117344571D01*
X104798858Y-117392190D01*
X104417905Y-117392190D01*
X105322667Y-116868381D02*
X105941715Y-116868381D01*
X105608381Y-117249333D01*
X105751239Y-117249333D01*
X105846477Y-117296952D01*
X105894096Y-117344571D01*
X105941715Y-117439810D01*
X105941715Y-117677905D01*
X105894096Y-117773143D01*
X105846477Y-117820762D01*
X105751239Y-117868381D01*
X105465524Y-117868381D01*
X105370286Y-117820762D01*
X105322667Y-117773143D01*
X104989334Y-113296381D02*
X104656000Y-112820190D01*
X104417905Y-113296381D02*
X104417905Y-112296381D01*
X104798858Y-112296381D01*
X104894096Y-112344000D01*
X104941715Y-112391619D01*
X104989334Y-112486857D01*
X104989334Y-112629714D01*
X104941715Y-112724952D01*
X104894096Y-112772571D01*
X104798858Y-112820190D01*
X104417905Y-112820190D01*
X105846477Y-112629714D02*
X105846477Y-113296381D01*
X105608381Y-112248762D02*
X105370286Y-112963048D01*
X105989334Y-112963048D01*
X104989334Y-108724381D02*
X104656000Y-108248190D01*
X104417905Y-108724381D02*
X104417905Y-107724381D01*
X104798858Y-107724381D01*
X104894096Y-107772000D01*
X104941715Y-107819619D01*
X104989334Y-107914857D01*
X104989334Y-108057714D01*
X104941715Y-108152952D01*
X104894096Y-108200571D01*
X104798858Y-108248190D01*
X104417905Y-108248190D01*
X105894096Y-107724381D02*
X105417905Y-107724381D01*
X105370286Y-108200571D01*
X105417905Y-108152952D01*
X105513143Y-108105333D01*
X105751239Y-108105333D01*
X105846477Y-108152952D01*
X105894096Y-108200571D01*
X105941715Y-108295810D01*
X105941715Y-108533905D01*
X105894096Y-108629143D01*
X105846477Y-108676762D01*
X105751239Y-108724381D01*
X105513143Y-108724381D01*
X105417905Y-108676762D01*
X105370286Y-108629143D01*
X104989334Y-104152381D02*
X104656000Y-103676190D01*
X104417905Y-104152381D02*
X104417905Y-103152381D01*
X104798858Y-103152381D01*
X104894096Y-103200000D01*
X104941715Y-103247619D01*
X104989334Y-103342857D01*
X104989334Y-103485714D01*
X104941715Y-103580952D01*
X104894096Y-103628571D01*
X104798858Y-103676190D01*
X104417905Y-103676190D01*
X105846477Y-103152381D02*
X105656000Y-103152381D01*
X105560762Y-103200000D01*
X105513143Y-103247619D01*
X105417905Y-103390476D01*
X105370286Y-103580952D01*
X105370286Y-103961905D01*
X105417905Y-104057143D01*
X105465524Y-104104762D01*
X105560762Y-104152381D01*
X105751239Y-104152381D01*
X105846477Y-104104762D01*
X105894096Y-104057143D01*
X105941715Y-103961905D01*
X105941715Y-103723810D01*
X105894096Y-103628571D01*
X105846477Y-103580952D01*
X105751239Y-103533333D01*
X105560762Y-103533333D01*
X105465524Y-103580952D01*
X105417905Y-103628571D01*
X105370286Y-103723810D01*
X104989334Y-99580381D02*
X104656000Y-99104190D01*
X104417905Y-99580381D02*
X104417905Y-98580381D01*
X104798858Y-98580381D01*
X104894096Y-98628000D01*
X104941715Y-98675619D01*
X104989334Y-98770857D01*
X104989334Y-98913714D01*
X104941715Y-99008952D01*
X104894096Y-99056571D01*
X104798858Y-99104190D01*
X104417905Y-99104190D01*
X105322667Y-98580381D02*
X105989334Y-98580381D01*
X105560762Y-99580381D01*
X104989334Y-95008381D02*
X104656000Y-94532190D01*
X104417905Y-95008381D02*
X104417905Y-94008381D01*
X104798858Y-94008381D01*
X104894096Y-94056000D01*
X104941715Y-94103619D01*
X104989334Y-94198857D01*
X104989334Y-94341714D01*
X104941715Y-94436952D01*
X104894096Y-94484571D01*
X104798858Y-94532190D01*
X104417905Y-94532190D01*
X105560762Y-94436952D02*
X105465524Y-94389333D01*
X105417905Y-94341714D01*
X105370286Y-94246476D01*
X105370286Y-94198857D01*
X105417905Y-94103619D01*
X105465524Y-94056000D01*
X105560762Y-94008381D01*
X105751239Y-94008381D01*
X105846477Y-94056000D01*
X105894096Y-94103619D01*
X105941715Y-94198857D01*
X105941715Y-94246476D01*
X105894096Y-94341714D01*
X105846477Y-94389333D01*
X105751239Y-94436952D01*
X105560762Y-94436952D01*
X105465524Y-94484571D01*
X105417905Y-94532190D01*
X105370286Y-94627429D01*
X105370286Y-94817905D01*
X105417905Y-94913143D01*
X105465524Y-94960762D01*
X105560762Y-95008381D01*
X105751239Y-95008381D01*
X105846477Y-94960762D01*
X105894096Y-94913143D01*
X105941715Y-94817905D01*
X105941715Y-94627429D01*
X105894096Y-94532190D01*
X105846477Y-94484571D01*
X105751239Y-94436952D01*
X146137334Y-122812381D02*
X145804000Y-122336190D01*
X145565905Y-122812381D02*
X145565905Y-121812381D01*
X145946858Y-121812381D01*
X146042096Y-121860000D01*
X146089715Y-121907619D01*
X146137334Y-122002857D01*
X146137334Y-122145714D01*
X146089715Y-122240952D01*
X146042096Y-122288571D01*
X145946858Y-122336190D01*
X145565905Y-122336190D01*
X146613524Y-122812381D02*
X146804000Y-122812381D01*
X146899239Y-122764762D01*
X146946858Y-122717143D01*
X147042096Y-122574286D01*
X147089715Y-122383810D01*
X147089715Y-122002857D01*
X147042096Y-121907619D01*
X146994477Y-121860000D01*
X146899239Y-121812381D01*
X146708762Y-121812381D01*
X146613524Y-121860000D01*
X146565905Y-121907619D01*
X146518286Y-122002857D01*
X146518286Y-122240952D01*
X146565905Y-122336190D01*
X146613524Y-122383810D01*
X146708762Y-122431429D01*
X146899239Y-122431429D01*
X146994477Y-122383810D01*
X147042096Y-122336190D01*
X147089715Y-122240952D01*
X145661143Y-118240381D02*
X145327809Y-117764190D01*
X145089714Y-118240381D02*
X145089714Y-117240381D01*
X145470667Y-117240381D01*
X145565905Y-117288000D01*
X145613524Y-117335619D01*
X145661143Y-117430857D01*
X145661143Y-117573714D01*
X145613524Y-117668952D01*
X145565905Y-117716571D01*
X145470667Y-117764190D01*
X145089714Y-117764190D01*
X146613524Y-118240381D02*
X146042095Y-118240381D01*
X146327809Y-118240381D02*
X146327809Y-117240381D01*
X146232571Y-117383238D01*
X146137333Y-117478476D01*
X146042095Y-117526095D01*
X147232571Y-117240381D02*
X147327810Y-117240381D01*
X147423048Y-117288000D01*
X147470667Y-117335619D01*
X147518286Y-117430857D01*
X147565905Y-117621333D01*
X147565905Y-117859429D01*
X147518286Y-118049905D01*
X147470667Y-118145143D01*
X147423048Y-118192762D01*
X147327810Y-118240381D01*
X147232571Y-118240381D01*
X147137333Y-118192762D01*
X147089714Y-118145143D01*
X147042095Y-118049905D01*
X146994476Y-117859429D01*
X146994476Y-117621333D01*
X147042095Y-117430857D01*
X147089714Y-117335619D01*
X147137333Y-117288000D01*
X147232571Y-117240381D01*
X145661143Y-113668381D02*
X145327809Y-113192190D01*
X145089714Y-113668381D02*
X145089714Y-112668381D01*
X145470667Y-112668381D01*
X145565905Y-112716000D01*
X145613524Y-112763619D01*
X145661143Y-112858857D01*
X145661143Y-113001714D01*
X145613524Y-113096952D01*
X145565905Y-113144571D01*
X145470667Y-113192190D01*
X145089714Y-113192190D01*
X146613524Y-113668381D02*
X146042095Y-113668381D01*
X146327809Y-113668381D02*
X146327809Y-112668381D01*
X146232571Y-112811238D01*
X146137333Y-112906476D01*
X146042095Y-112954095D01*
X147565905Y-113668381D02*
X146994476Y-113668381D01*
X147280190Y-113668381D02*
X147280190Y-112668381D01*
X147184952Y-112811238D01*
X147089714Y-112906476D01*
X146994476Y-112954095D01*
X145661143Y-109096381D02*
X145327809Y-108620190D01*
X145089714Y-109096381D02*
X145089714Y-108096381D01*
X145470667Y-108096381D01*
X145565905Y-108144000D01*
X145613524Y-108191619D01*
X145661143Y-108286857D01*
X145661143Y-108429714D01*
X145613524Y-108524952D01*
X145565905Y-108572571D01*
X145470667Y-108620190D01*
X145089714Y-108620190D01*
X146613524Y-109096381D02*
X146042095Y-109096381D01*
X146327809Y-109096381D02*
X146327809Y-108096381D01*
X146232571Y-108239238D01*
X146137333Y-108334476D01*
X146042095Y-108382095D01*
X146994476Y-108191619D02*
X147042095Y-108144000D01*
X147137333Y-108096381D01*
X147375429Y-108096381D01*
X147470667Y-108144000D01*
X147518286Y-108191619D01*
X147565905Y-108286857D01*
X147565905Y-108382095D01*
X147518286Y-108524952D01*
X146946857Y-109096381D01*
X147565905Y-109096381D01*
X145661143Y-104524381D02*
X145327809Y-104048190D01*
X145089714Y-104524381D02*
X145089714Y-103524381D01*
X145470667Y-103524381D01*
X145565905Y-103572000D01*
X145613524Y-103619619D01*
X145661143Y-103714857D01*
X145661143Y-103857714D01*
X145613524Y-103952952D01*
X145565905Y-104000571D01*
X145470667Y-104048190D01*
X145089714Y-104048190D01*
X146613524Y-104524381D02*
X146042095Y-104524381D01*
X146327809Y-104524381D02*
X146327809Y-103524381D01*
X146232571Y-103667238D01*
X146137333Y-103762476D01*
X146042095Y-103810095D01*
X146946857Y-103524381D02*
X147565905Y-103524381D01*
X147232571Y-103905333D01*
X147375429Y-103905333D01*
X147470667Y-103952952D01*
X147518286Y-104000571D01*
X147565905Y-104095810D01*
X147565905Y-104333905D01*
X147518286Y-104429143D01*
X147470667Y-104476762D01*
X147375429Y-104524381D01*
X147089714Y-104524381D01*
X146994476Y-104476762D01*
X146946857Y-104429143D01*
X145661143Y-99952381D02*
X145327809Y-99476190D01*
X145089714Y-99952381D02*
X145089714Y-98952381D01*
X145470667Y-98952381D01*
X145565905Y-99000000D01*
X145613524Y-99047619D01*
X145661143Y-99142857D01*
X145661143Y-99285714D01*
X145613524Y-99380952D01*
X145565905Y-99428571D01*
X145470667Y-99476190D01*
X145089714Y-99476190D01*
X146613524Y-99952381D02*
X146042095Y-99952381D01*
X146327809Y-99952381D02*
X146327809Y-98952381D01*
X146232571Y-99095238D01*
X146137333Y-99190476D01*
X146042095Y-99238095D01*
X147470667Y-99285714D02*
X147470667Y-99952381D01*
X147232571Y-98904762D02*
X146994476Y-99619048D01*
X147613524Y-99619048D01*
X145661143Y-95380381D02*
X145327809Y-94904190D01*
X145089714Y-95380381D02*
X145089714Y-94380381D01*
X145470667Y-94380381D01*
X145565905Y-94428000D01*
X145613524Y-94475619D01*
X145661143Y-94570857D01*
X145661143Y-94713714D01*
X145613524Y-94808952D01*
X145565905Y-94856571D01*
X145470667Y-94904190D01*
X145089714Y-94904190D01*
X146613524Y-95380381D02*
X146042095Y-95380381D01*
X146327809Y-95380381D02*
X146327809Y-94380381D01*
X146232571Y-94523238D01*
X146137333Y-94618476D01*
X146042095Y-94666095D01*
X147518286Y-94380381D02*
X147042095Y-94380381D01*
X146994476Y-94856571D01*
X147042095Y-94808952D01*
X147137333Y-94761333D01*
X147375429Y-94761333D01*
X147470667Y-94808952D01*
X147518286Y-94856571D01*
X147565905Y-94951810D01*
X147565905Y-95189905D01*
X147518286Y-95285143D01*
X147470667Y-95332762D01*
X147375429Y-95380381D01*
X147137333Y-95380381D01*
X147042095Y-95332762D01*
X146994476Y-95285143D01*
X145661143Y-90808381D02*
X145327809Y-90332190D01*
X145089714Y-90808381D02*
X145089714Y-89808381D01*
X145470667Y-89808381D01*
X145565905Y-89856000D01*
X145613524Y-89903619D01*
X145661143Y-89998857D01*
X145661143Y-90141714D01*
X145613524Y-90236952D01*
X145565905Y-90284571D01*
X145470667Y-90332190D01*
X145089714Y-90332190D01*
X146613524Y-90808381D02*
X146042095Y-90808381D01*
X146327809Y-90808381D02*
X146327809Y-89808381D01*
X146232571Y-89951238D01*
X146137333Y-90046476D01*
X146042095Y-90094095D01*
X147470667Y-89808381D02*
X147280190Y-89808381D01*
X147184952Y-89856000D01*
X147137333Y-89903619D01*
X147042095Y-90046476D01*
X146994476Y-90236952D01*
X146994476Y-90617905D01*
X147042095Y-90713143D01*
X147089714Y-90760762D01*
X147184952Y-90808381D01*
X147375429Y-90808381D01*
X147470667Y-90760762D01*
X147518286Y-90713143D01*
X147565905Y-90617905D01*
X147565905Y-90379810D01*
X147518286Y-90284571D01*
X147470667Y-90236952D01*
X147375429Y-90189333D01*
X147184952Y-90189333D01*
X147089714Y-90236952D01*
X147042095Y-90284571D01*
X146994476Y-90379810D01*
X114006381Y-107314905D02*
X114815905Y-107314905D01*
X114911143Y-107267286D01*
X114958762Y-107219667D01*
X115006381Y-107124429D01*
X115006381Y-106933952D01*
X114958762Y-106838714D01*
X114911143Y-106791095D01*
X114815905Y-106743476D01*
X114006381Y-106743476D01*
X115006381Y-105743476D02*
X115006381Y-106314905D01*
X115006381Y-106029191D02*
X114006381Y-106029191D01*
X114149238Y-106124429D01*
X114244476Y-106219667D01*
X114292095Y-106314905D01*
X133818381Y-107314905D02*
X134627905Y-107314905D01*
X134723143Y-107267286D01*
X134770762Y-107219667D01*
X134818381Y-107124429D01*
X134818381Y-106933952D01*
X134770762Y-106838714D01*
X134723143Y-106791095D01*
X134627905Y-106743476D01*
X133818381Y-106743476D01*
X133913619Y-106314905D02*
X133866000Y-106267286D01*
X133818381Y-106172048D01*
X133818381Y-105933952D01*
X133866000Y-105838714D01*
X133913619Y-105791095D01*
X134008857Y-105743476D01*
X134104095Y-105743476D01*
X134246952Y-105791095D01*
X134818381Y-106362524D01*
X134818381Y-105743476D01*
X97210714Y-138600381D02*
X97210714Y-137600381D01*
X97448809Y-137600381D01*
X97591667Y-137648000D01*
X97686905Y-137743238D01*
X97734524Y-137838476D01*
X97782143Y-138028952D01*
X97782143Y-138171810D01*
X97734524Y-138362286D01*
X97686905Y-138457524D01*
X97591667Y-138552762D01*
X97448809Y-138600381D01*
X97210714Y-138600381D01*
X98734524Y-138600381D02*
X98163095Y-138600381D01*
X98448809Y-138600381D02*
X98448809Y-137600381D01*
X98353571Y-137743238D01*
X98258333Y-137838476D01*
X98163095Y-137886095D01*
X99067857Y-137600381D02*
X99734524Y-137600381D01*
X99305952Y-138600381D01*
X103243214Y-138600381D02*
X103243214Y-137600381D01*
X103481309Y-137600381D01*
X103624167Y-137648000D01*
X103719405Y-137743238D01*
X103767024Y-137838476D01*
X103814643Y-138028952D01*
X103814643Y-138171810D01*
X103767024Y-138362286D01*
X103719405Y-138457524D01*
X103624167Y-138552762D01*
X103481309Y-138600381D01*
X103243214Y-138600381D01*
X104767024Y-138600381D02*
X104195595Y-138600381D01*
X104481309Y-138600381D02*
X104481309Y-137600381D01*
X104386071Y-137743238D01*
X104290833Y-137838476D01*
X104195595Y-137886095D01*
X105338452Y-138028952D02*
X105243214Y-137981333D01*
X105195595Y-137933714D01*
X105147976Y-137838476D01*
X105147976Y-137790857D01*
X105195595Y-137695619D01*
X105243214Y-137648000D01*
X105338452Y-137600381D01*
X105528929Y-137600381D01*
X105624167Y-137648000D01*
X105671786Y-137695619D01*
X105719405Y-137790857D01*
X105719405Y-137838476D01*
X105671786Y-137933714D01*
X105624167Y-137981333D01*
X105528929Y-138028952D01*
X105338452Y-138028952D01*
X105243214Y-138076571D01*
X105195595Y-138124190D01*
X105147976Y-138219429D01*
X105147976Y-138409905D01*
X105195595Y-138505143D01*
X105243214Y-138552762D01*
X105338452Y-138600381D01*
X105528929Y-138600381D01*
X105624167Y-138552762D01*
X105671786Y-138505143D01*
X105719405Y-138409905D01*
X105719405Y-138219429D01*
X105671786Y-138124190D01*
X105624167Y-138076571D01*
X105528929Y-138028952D01*
X109148714Y-138600381D02*
X109148714Y-137600381D01*
X109386809Y-137600381D01*
X109529667Y-137648000D01*
X109624905Y-137743238D01*
X109672524Y-137838476D01*
X109720143Y-138028952D01*
X109720143Y-138171810D01*
X109672524Y-138362286D01*
X109624905Y-138457524D01*
X109529667Y-138552762D01*
X109386809Y-138600381D01*
X109148714Y-138600381D01*
X110672524Y-138600381D02*
X110101095Y-138600381D01*
X110386809Y-138600381D02*
X110386809Y-137600381D01*
X110291571Y-137743238D01*
X110196333Y-137838476D01*
X110101095Y-137886095D01*
X111148714Y-138600381D02*
X111339190Y-138600381D01*
X111434429Y-138552762D01*
X111482048Y-138505143D01*
X111577286Y-138362286D01*
X111624905Y-138171810D01*
X111624905Y-137790857D01*
X111577286Y-137695619D01*
X111529667Y-137648000D01*
X111434429Y-137600381D01*
X111243952Y-137600381D01*
X111148714Y-137648000D01*
X111101095Y-137695619D01*
X111053476Y-137790857D01*
X111053476Y-138028952D01*
X111101095Y-138124190D01*
X111148714Y-138171810D01*
X111243952Y-138219429D01*
X111434429Y-138219429D01*
X111529667Y-138171810D01*
X111577286Y-138124190D01*
X111624905Y-138028952D01*
X114609714Y-138600381D02*
X114609714Y-137600381D01*
X114847809Y-137600381D01*
X114990667Y-137648000D01*
X115085905Y-137743238D01*
X115133524Y-137838476D01*
X115181143Y-138028952D01*
X115181143Y-138171810D01*
X115133524Y-138362286D01*
X115085905Y-138457524D01*
X114990667Y-138552762D01*
X114847809Y-138600381D01*
X114609714Y-138600381D01*
X115562095Y-137695619D02*
X115609714Y-137648000D01*
X115704952Y-137600381D01*
X115943048Y-137600381D01*
X116038286Y-137648000D01*
X116085905Y-137695619D01*
X116133524Y-137790857D01*
X116133524Y-137886095D01*
X116085905Y-138028952D01*
X115514476Y-138600381D01*
X116133524Y-138600381D01*
X116752571Y-137600381D02*
X116847810Y-137600381D01*
X116943048Y-137648000D01*
X116990667Y-137695619D01*
X117038286Y-137790857D01*
X117085905Y-137981333D01*
X117085905Y-138219429D01*
X117038286Y-138409905D01*
X116990667Y-138505143D01*
X116943048Y-138552762D01*
X116847810Y-138600381D01*
X116752571Y-138600381D01*
X116657333Y-138552762D01*
X116609714Y-138505143D01*
X116562095Y-138409905D01*
X116514476Y-138219429D01*
X116514476Y-137981333D01*
X116562095Y-137790857D01*
X116609714Y-137695619D01*
X116657333Y-137648000D01*
X116752571Y-137600381D01*
X134294714Y-135100381D02*
X134294714Y-134100381D01*
X134532809Y-134100381D01*
X134675667Y-134148000D01*
X134770905Y-134243238D01*
X134818524Y-134338476D01*
X134866143Y-134528952D01*
X134866143Y-134671810D01*
X134818524Y-134862286D01*
X134770905Y-134957524D01*
X134675667Y-135052762D01*
X134532809Y-135100381D01*
X134294714Y-135100381D01*
X135247095Y-134195619D02*
X135294714Y-134148000D01*
X135389952Y-134100381D01*
X135628048Y-134100381D01*
X135723286Y-134148000D01*
X135770905Y-134195619D01*
X135818524Y-134290857D01*
X135818524Y-134386095D01*
X135770905Y-134528952D01*
X135199476Y-135100381D01*
X135818524Y-135100381D01*
X136770905Y-135100381D02*
X136199476Y-135100381D01*
X136485190Y-135100381D02*
X136485190Y-134100381D01*
X136389952Y-134243238D01*
X136294714Y-134338476D01*
X136199476Y-134386095D01*
X140390714Y-135100381D02*
X140390714Y-134100381D01*
X140628809Y-134100381D01*
X140771667Y-134148000D01*
X140866905Y-134243238D01*
X140914524Y-134338476D01*
X140962143Y-134528952D01*
X140962143Y-134671810D01*
X140914524Y-134862286D01*
X140866905Y-134957524D01*
X140771667Y-135052762D01*
X140628809Y-135100381D01*
X140390714Y-135100381D01*
X141343095Y-134195619D02*
X141390714Y-134148000D01*
X141485952Y-134100381D01*
X141724048Y-134100381D01*
X141819286Y-134148000D01*
X141866905Y-134195619D01*
X141914524Y-134290857D01*
X141914524Y-134386095D01*
X141866905Y-134528952D01*
X141295476Y-135100381D01*
X141914524Y-135100381D01*
X142295476Y-134195619D02*
X142343095Y-134148000D01*
X142438333Y-134100381D01*
X142676429Y-134100381D01*
X142771667Y-134148000D01*
X142819286Y-134195619D01*
X142866905Y-134290857D01*
X142866905Y-134386095D01*
X142819286Y-134528952D01*
X142247857Y-135100381D01*
X142866905Y-135100381D01*
X145978714Y-135100381D02*
X145978714Y-134100381D01*
X146216809Y-134100381D01*
X146359667Y-134148000D01*
X146454905Y-134243238D01*
X146502524Y-134338476D01*
X146550143Y-134528952D01*
X146550143Y-134671810D01*
X146502524Y-134862286D01*
X146454905Y-134957524D01*
X146359667Y-135052762D01*
X146216809Y-135100381D01*
X145978714Y-135100381D01*
X146931095Y-134195619D02*
X146978714Y-134148000D01*
X147073952Y-134100381D01*
X147312048Y-134100381D01*
X147407286Y-134148000D01*
X147454905Y-134195619D01*
X147502524Y-134290857D01*
X147502524Y-134386095D01*
X147454905Y-134528952D01*
X146883476Y-135100381D01*
X147502524Y-135100381D01*
X147835857Y-134100381D02*
X148454905Y-134100381D01*
X148121571Y-134481333D01*
X148264429Y-134481333D01*
X148359667Y-134528952D01*
X148407286Y-134576571D01*
X148454905Y-134671810D01*
X148454905Y-134909905D01*
X148407286Y-135005143D01*
X148359667Y-135052762D01*
X148264429Y-135100381D01*
X147978714Y-135100381D01*
X147883476Y-135052762D01*
X147835857Y-135005143D01*
X151566714Y-135100381D02*
X151566714Y-134100381D01*
X151804809Y-134100381D01*
X151947667Y-134148000D01*
X152042905Y-134243238D01*
X152090524Y-134338476D01*
X152138143Y-134528952D01*
X152138143Y-134671810D01*
X152090524Y-134862286D01*
X152042905Y-134957524D01*
X151947667Y-135052762D01*
X151804809Y-135100381D01*
X151566714Y-135100381D01*
X152519095Y-134195619D02*
X152566714Y-134148000D01*
X152661952Y-134100381D01*
X152900048Y-134100381D01*
X152995286Y-134148000D01*
X153042905Y-134195619D01*
X153090524Y-134290857D01*
X153090524Y-134386095D01*
X153042905Y-134528952D01*
X152471476Y-135100381D01*
X153090524Y-135100381D01*
X153947667Y-134433714D02*
X153947667Y-135100381D01*
X153709571Y-134052762D02*
X153471476Y-134767048D01*
X154090524Y-134767048D01*
X99961381Y-131960857D02*
X99485190Y-132294191D01*
X99961381Y-132532286D02*
X98961381Y-132532286D01*
X98961381Y-132151333D01*
X99009000Y-132056095D01*
X99056619Y-132008476D01*
X99151857Y-131960857D01*
X99294714Y-131960857D01*
X99389952Y-132008476D01*
X99437571Y-132056095D01*
X99485190Y-132151333D01*
X99485190Y-132532286D01*
X99961381Y-131008476D02*
X99961381Y-131579905D01*
X99961381Y-131294191D02*
X98961381Y-131294191D01*
X99104238Y-131389429D01*
X99199476Y-131484667D01*
X99247095Y-131579905D01*
X98961381Y-130675143D02*
X98961381Y-130008476D01*
X99961381Y-130437048D01*
X105930381Y-131960857D02*
X105454190Y-132294191D01*
X105930381Y-132532286D02*
X104930381Y-132532286D01*
X104930381Y-132151333D01*
X104978000Y-132056095D01*
X105025619Y-132008476D01*
X105120857Y-131960857D01*
X105263714Y-131960857D01*
X105358952Y-132008476D01*
X105406571Y-132056095D01*
X105454190Y-132151333D01*
X105454190Y-132532286D01*
X105930381Y-131008476D02*
X105930381Y-131579905D01*
X105930381Y-131294191D02*
X104930381Y-131294191D01*
X105073238Y-131389429D01*
X105168476Y-131484667D01*
X105216095Y-131579905D01*
X105358952Y-130437048D02*
X105311333Y-130532286D01*
X105263714Y-130579905D01*
X105168476Y-130627524D01*
X105120857Y-130627524D01*
X105025619Y-130579905D01*
X104978000Y-130532286D01*
X104930381Y-130437048D01*
X104930381Y-130246571D01*
X104978000Y-130151333D01*
X105025619Y-130103714D01*
X105120857Y-130056095D01*
X105168476Y-130056095D01*
X105263714Y-130103714D01*
X105311333Y-130151333D01*
X105358952Y-130246571D01*
X105358952Y-130437048D01*
X105406571Y-130532286D01*
X105454190Y-130579905D01*
X105549429Y-130627524D01*
X105739905Y-130627524D01*
X105835143Y-130579905D01*
X105882762Y-130532286D01*
X105930381Y-130437048D01*
X105930381Y-130246571D01*
X105882762Y-130151333D01*
X105835143Y-130103714D01*
X105739905Y-130056095D01*
X105549429Y-130056095D01*
X105454190Y-130103714D01*
X105406571Y-130151333D01*
X105358952Y-130246571D01*
X111772381Y-131960857D02*
X111296190Y-132294191D01*
X111772381Y-132532286D02*
X110772381Y-132532286D01*
X110772381Y-132151333D01*
X110820000Y-132056095D01*
X110867619Y-132008476D01*
X110962857Y-131960857D01*
X111105714Y-131960857D01*
X111200952Y-132008476D01*
X111248571Y-132056095D01*
X111296190Y-132151333D01*
X111296190Y-132532286D01*
X111772381Y-131008476D02*
X111772381Y-131579905D01*
X111772381Y-131294191D02*
X110772381Y-131294191D01*
X110915238Y-131389429D01*
X111010476Y-131484667D01*
X111058095Y-131579905D01*
X111772381Y-130532286D02*
X111772381Y-130341810D01*
X111724762Y-130246571D01*
X111677143Y-130198952D01*
X111534286Y-130103714D01*
X111343810Y-130056095D01*
X110962857Y-130056095D01*
X110867619Y-130103714D01*
X110820000Y-130151333D01*
X110772381Y-130246571D01*
X110772381Y-130437048D01*
X110820000Y-130532286D01*
X110867619Y-130579905D01*
X110962857Y-130627524D01*
X111200952Y-130627524D01*
X111296190Y-130579905D01*
X111343810Y-130532286D01*
X111391429Y-130437048D01*
X111391429Y-130246571D01*
X111343810Y-130151333D01*
X111296190Y-130103714D01*
X111200952Y-130056095D01*
X117360381Y-131960857D02*
X116884190Y-132294191D01*
X117360381Y-132532286D02*
X116360381Y-132532286D01*
X116360381Y-132151333D01*
X116408000Y-132056095D01*
X116455619Y-132008476D01*
X116550857Y-131960857D01*
X116693714Y-131960857D01*
X116788952Y-132008476D01*
X116836571Y-132056095D01*
X116884190Y-132151333D01*
X116884190Y-132532286D01*
X116455619Y-131579905D02*
X116408000Y-131532286D01*
X116360381Y-131437048D01*
X116360381Y-131198952D01*
X116408000Y-131103714D01*
X116455619Y-131056095D01*
X116550857Y-131008476D01*
X116646095Y-131008476D01*
X116788952Y-131056095D01*
X117360381Y-131627524D01*
X117360381Y-131008476D01*
X116360381Y-130389429D02*
X116360381Y-130294190D01*
X116408000Y-130198952D01*
X116455619Y-130151333D01*
X116550857Y-130103714D01*
X116741333Y-130056095D01*
X116979429Y-130056095D01*
X117169905Y-130103714D01*
X117265143Y-130151333D01*
X117312762Y-130198952D01*
X117360381Y-130294190D01*
X117360381Y-130389429D01*
X117312762Y-130484667D01*
X117265143Y-130532286D01*
X117169905Y-130579905D01*
X116979429Y-130627524D01*
X116741333Y-130627524D01*
X116550857Y-130579905D01*
X116455619Y-130532286D01*
X116408000Y-130484667D01*
X116360381Y-130389429D01*
X139077381Y-131960857D02*
X138601190Y-132294191D01*
X139077381Y-132532286D02*
X138077381Y-132532286D01*
X138077381Y-132151333D01*
X138125000Y-132056095D01*
X138172619Y-132008476D01*
X138267857Y-131960857D01*
X138410714Y-131960857D01*
X138505952Y-132008476D01*
X138553571Y-132056095D01*
X138601190Y-132151333D01*
X138601190Y-132532286D01*
X138172619Y-131579905D02*
X138125000Y-131532286D01*
X138077381Y-131437048D01*
X138077381Y-131198952D01*
X138125000Y-131103714D01*
X138172619Y-131056095D01*
X138267857Y-131008476D01*
X138363095Y-131008476D01*
X138505952Y-131056095D01*
X139077381Y-131627524D01*
X139077381Y-131008476D01*
X139077381Y-130056095D02*
X139077381Y-130627524D01*
X139077381Y-130341810D02*
X138077381Y-130341810D01*
X138220238Y-130437048D01*
X138315476Y-130532286D01*
X138363095Y-130627524D01*
X145173381Y-131960857D02*
X144697190Y-132294191D01*
X145173381Y-132532286D02*
X144173381Y-132532286D01*
X144173381Y-132151333D01*
X144221000Y-132056095D01*
X144268619Y-132008476D01*
X144363857Y-131960857D01*
X144506714Y-131960857D01*
X144601952Y-132008476D01*
X144649571Y-132056095D01*
X144697190Y-132151333D01*
X144697190Y-132532286D01*
X144268619Y-131579905D02*
X144221000Y-131532286D01*
X144173381Y-131437048D01*
X144173381Y-131198952D01*
X144221000Y-131103714D01*
X144268619Y-131056095D01*
X144363857Y-131008476D01*
X144459095Y-131008476D01*
X144601952Y-131056095D01*
X145173381Y-131627524D01*
X145173381Y-131008476D01*
X144268619Y-130627524D02*
X144221000Y-130579905D01*
X144173381Y-130484667D01*
X144173381Y-130246571D01*
X144221000Y-130151333D01*
X144268619Y-130103714D01*
X144363857Y-130056095D01*
X144459095Y-130056095D01*
X144601952Y-130103714D01*
X145173381Y-130675143D01*
X145173381Y-130056095D01*
X150761381Y-131960857D02*
X150285190Y-132294191D01*
X150761381Y-132532286D02*
X149761381Y-132532286D01*
X149761381Y-132151333D01*
X149809000Y-132056095D01*
X149856619Y-132008476D01*
X149951857Y-131960857D01*
X150094714Y-131960857D01*
X150189952Y-132008476D01*
X150237571Y-132056095D01*
X150285190Y-132151333D01*
X150285190Y-132532286D01*
X149856619Y-131579905D02*
X149809000Y-131532286D01*
X149761381Y-131437048D01*
X149761381Y-131198952D01*
X149809000Y-131103714D01*
X149856619Y-131056095D01*
X149951857Y-131008476D01*
X150047095Y-131008476D01*
X150189952Y-131056095D01*
X150761381Y-131627524D01*
X150761381Y-131008476D01*
X149761381Y-130675143D02*
X149761381Y-130056095D01*
X150142333Y-130389429D01*
X150142333Y-130246571D01*
X150189952Y-130151333D01*
X150237571Y-130103714D01*
X150332810Y-130056095D01*
X150570905Y-130056095D01*
X150666143Y-130103714D01*
X150713762Y-130151333D01*
X150761381Y-130246571D01*
X150761381Y-130532286D01*
X150713762Y-130627524D01*
X150666143Y-130675143D01*
X156349381Y-131960857D02*
X155873190Y-132294191D01*
X156349381Y-132532286D02*
X155349381Y-132532286D01*
X155349381Y-132151333D01*
X155397000Y-132056095D01*
X155444619Y-132008476D01*
X155539857Y-131960857D01*
X155682714Y-131960857D01*
X155777952Y-132008476D01*
X155825571Y-132056095D01*
X155873190Y-132151333D01*
X155873190Y-132532286D01*
X155444619Y-131579905D02*
X155397000Y-131532286D01*
X155349381Y-131437048D01*
X155349381Y-131198952D01*
X155397000Y-131103714D01*
X155444619Y-131056095D01*
X155539857Y-131008476D01*
X155635095Y-131008476D01*
X155777952Y-131056095D01*
X156349381Y-131627524D01*
X156349381Y-131008476D01*
X155682714Y-130151333D02*
X156349381Y-130151333D01*
X155301762Y-130389429D02*
X156016048Y-130627524D01*
X156016048Y-130008476D01*
X124714095Y-128484381D02*
X124714095Y-129293905D01*
X124761714Y-129389143D01*
X124809333Y-129436762D01*
X124904571Y-129484381D01*
X125095048Y-129484381D01*
X125190286Y-129436762D01*
X125237905Y-129389143D01*
X125285524Y-129293905D01*
X125285524Y-128484381D01*
X125666476Y-128484381D02*
X126285524Y-128484381D01*
X125952190Y-128865333D01*
X126095048Y-128865333D01*
X126190286Y-128912952D01*
X126237905Y-128960571D01*
X126285524Y-129055810D01*
X126285524Y-129293905D01*
X126237905Y-129389143D01*
X126190286Y-129436762D01*
X126095048Y-129484381D01*
X125809333Y-129484381D01*
X125714095Y-129436762D01*
X125666476Y-129389143D01*
M02*
