M48
;DRILL file {KiCad 4.0.4-stable} date 12/23/16 15:55:33
;FORMAT={-:-/ absolute / inch / decimal}
FMAT,2
INCH,TZ
T1C0.012
T2C0.016
T3C0.040
%
G90
G05
M72
T1
X4.795Y-4.025
X5.05Y-4.32
X5.185Y-4.82
X5.185Y-4.9
X5.53Y-3.935
T2
X3.96Y-5.295
X4.11Y-4.64
X4.115Y-4.445
X4.125Y-4.305
X4.13Y-4.09
X4.145Y-4.25
X4.145Y-4.825
X4.155Y-3.9
X4.385Y-5.435
X4.415Y-5.49
X4.47Y-4.525
X4.48Y-4.055
X4.505Y-4.445
X4.53Y-4.36
X4.56Y-3.925
X4.56Y-4.055
X4.57Y-4.305
X4.58Y-4.25
X4.585Y-4.125
X4.585Y-4.175
X4.595Y-3.875
X4.595Y-4.02
X4.6Y-5.44
X4.64Y-5.295
X4.65Y-5.52
X4.71Y-4.92
X4.81Y-4.92
X4.94Y-4.9
X4.95Y-4.275
X4.975Y-4.915
X5.01Y-4.9
X5.14Y-4.225
X5.165Y-4.145
X5.195Y-5.49
X5.215Y-3.965
X5.22Y-5.46
X5.25Y-5.43
X5.295Y-5.49
X5.36Y-4.54
X5.56Y-4.565
X5.59Y-4.035
X5.59Y-4.255
X5.59Y-4.3
X5.62Y-4.18
X5.635Y-4.09
X5.645Y-4.45
X5.695Y-5.46
X5.895Y-4.63
X5.915Y-4.81
X5.915Y-5.43
X6.055Y-4.1
X6.06Y-3.915
X6.075Y-3.73
X6.075Y-4.25
X6.075Y-4.3
X6.08Y-4.45
T3
X4.76Y-3.78
X4.86Y-3.78
X4.96Y-3.78
X5.06Y-3.78
X5.16Y-3.78
T0
M30
