G04 #@! TF.FileFunction,Soldermask,Top*
%FSLAX46Y46*%
G04 Gerber Fmt 4.6, Leading zero omitted, Abs format (unit mm)*
G04 Created by KiCad (PCBNEW 4.0.4-stable) date 12/23/16 15:55:29*
%MOMM*%
%LPD*%
G01*
G04 APERTURE LIST*
%ADD10C,0.100000*%
%ADD11R,3.900000X2.000000*%
%ADD12R,1.598880X1.598880*%
%ADD13R,2.127200X2.432000*%
%ADD14O,2.127200X2.432000*%
%ADD15R,1.900000X1.700000*%
%ADD16R,1.543000X0.908000*%
%ADD17R,1.700000X1.900000*%
%ADD18R,0.908000X1.543000*%
G04 APERTURE END LIST*
D10*
D11*
X122776000Y-117348000D03*
X128176000Y-117348000D03*
D12*
X98585020Y-124460000D03*
X96486980Y-124460000D03*
X98585020Y-119888000D03*
X96486980Y-119888000D03*
X98585020Y-115316000D03*
X96486980Y-115316000D03*
X98585020Y-110744000D03*
X96486980Y-110744000D03*
X98585020Y-106172000D03*
X96486980Y-106172000D03*
X98585020Y-101600000D03*
X96486980Y-101600000D03*
X98585020Y-97028000D03*
X96486980Y-97028000D03*
X98585020Y-92456000D03*
X96486980Y-92456000D03*
X152874980Y-124460000D03*
X154973020Y-124460000D03*
X152874980Y-119888000D03*
X154973020Y-119888000D03*
X152874980Y-115316000D03*
X154973020Y-115316000D03*
X152874980Y-110744000D03*
X154973020Y-110744000D03*
X152874980Y-106172000D03*
X154973020Y-106172000D03*
X152874980Y-101600000D03*
X154973020Y-101600000D03*
X152874980Y-97028000D03*
X154973020Y-97028000D03*
X152874980Y-92456000D03*
X154973020Y-92456000D03*
D13*
X131064000Y-96012000D03*
D14*
X128524000Y-96012000D03*
X125984000Y-96012000D03*
X123444000Y-96012000D03*
X120904000Y-96012000D03*
D15*
X106506000Y-124460000D03*
X103806000Y-124460000D03*
X106506000Y-119888000D03*
X103806000Y-119888000D03*
X106506000Y-115316000D03*
X103806000Y-115316000D03*
X106506000Y-110744000D03*
X103806000Y-110744000D03*
X106506000Y-106172000D03*
X103806000Y-106172000D03*
X106506000Y-101600000D03*
X103806000Y-101600000D03*
X106506000Y-97028000D03*
X103806000Y-97028000D03*
X106506000Y-92456000D03*
X103806000Y-92456000D03*
X144954000Y-124460000D03*
X147654000Y-124460000D03*
X144954000Y-119888000D03*
X147654000Y-119888000D03*
X144954000Y-115316000D03*
X147654000Y-115316000D03*
X144954000Y-110744000D03*
X147654000Y-110744000D03*
X144954000Y-106172000D03*
X147654000Y-106172000D03*
X144954000Y-101600000D03*
X147654000Y-101600000D03*
X144954000Y-97028000D03*
X147654000Y-97028000D03*
X144954000Y-92456000D03*
X147654000Y-92456000D03*
D16*
X112649000Y-111125000D03*
X112649000Y-108585000D03*
X112649000Y-107315000D03*
X112649000Y-106045000D03*
X112649000Y-104775000D03*
X112649000Y-103505000D03*
X112649000Y-102235000D03*
X118999000Y-102235000D03*
X118999000Y-103505000D03*
X118999000Y-104775000D03*
X118999000Y-106045000D03*
X118999000Y-107315000D03*
X118999000Y-108585000D03*
X118999000Y-109855000D03*
X118999000Y-111125000D03*
X112649000Y-109855000D03*
X132461000Y-111125000D03*
X132461000Y-108585000D03*
X132461000Y-107315000D03*
X132461000Y-106045000D03*
X132461000Y-104775000D03*
X132461000Y-103505000D03*
X132461000Y-102235000D03*
X138811000Y-102235000D03*
X138811000Y-103505000D03*
X138811000Y-104775000D03*
X138811000Y-106045000D03*
X138811000Y-107315000D03*
X138811000Y-108585000D03*
X138811000Y-109855000D03*
X138811000Y-111125000D03*
X132461000Y-109855000D03*
D12*
X97375980Y-136398000D03*
X99474020Y-136398000D03*
X103408480Y-136398000D03*
X105506520Y-136398000D03*
X109313980Y-136398000D03*
X111412020Y-136398000D03*
X114774980Y-136398000D03*
X116873020Y-136398000D03*
X136558020Y-136398000D03*
X134459980Y-136398000D03*
X142654020Y-136398000D03*
X140555980Y-136398000D03*
X148242020Y-136398000D03*
X146143980Y-136398000D03*
X153830020Y-136398000D03*
X151731980Y-136398000D03*
D17*
X97409000Y-129968000D03*
X97409000Y-132668000D03*
X103378000Y-129968000D03*
X103378000Y-132668000D03*
X109220000Y-129968000D03*
X109220000Y-132668000D03*
X114808000Y-129968000D03*
X114808000Y-132668000D03*
X136525000Y-129968000D03*
X136525000Y-132668000D03*
X142621000Y-129968000D03*
X142621000Y-132668000D03*
X148209000Y-129968000D03*
X148209000Y-132668000D03*
X153797000Y-129968000D03*
X153797000Y-132668000D03*
D18*
X120904000Y-127127000D03*
X123444000Y-127127000D03*
X124714000Y-127127000D03*
X125984000Y-127127000D03*
X127254000Y-127127000D03*
X128524000Y-127127000D03*
X129794000Y-127127000D03*
X129794000Y-133477000D03*
X128524000Y-133477000D03*
X127254000Y-133477000D03*
X125984000Y-133477000D03*
X124714000Y-133477000D03*
X123444000Y-133477000D03*
X122174000Y-133477000D03*
X120904000Y-133477000D03*
X122174000Y-127127000D03*
M02*
